 
<svg version="1.0" xmlns="http://www.w3.org/2000/svg"
 width="1080.000000pt" height="1350.000000pt" viewBox="0 0 1080.000000 1350.000000"
 preserveAspectRatio="xMidYMid meet">

<g transform="translate(0.000000,1350.000000) scale(0.100000,-0.100000)"
fill="#000000" stroke="none">
<path d="M0 11716 l0 -1784 278 -4 c318 -5 1011 -2 1152 6 52 3 169 10 260 16
279 18 296 18 275 13 -34 -9 -39 -22 -12 -29 17 -4 24 -11 20 -18 -4 -6 2 -4
13 4 10 8 16 11 12 6 -12 -14 91 -76 155 -91 15 -4 27 -10 27 -14 0 -4 6 -8
13 -9 6 0 23 -3 37 -6 14 -3 40 -9 57 -12 18 -3 31 -9 29 -13 -3 -4 3 -7 12
-8 53 -5 111 -28 116 -46 2 -10 8 -17 13 -14 4 3 13 -1 20 -8 17 -19 -28 -82
-66 -90 -16 -3 -36 -14 -45 -24 -14 -15 -74 -46 -141 -71 -11 -4 -46 -20 -78
-34 -32 -14 -66 -26 -77 -26 -11 0 -20 -4 -20 -10 0 -5 -5 -10 -11 -10 -7 0
-71 -19 -143 -42 -72 -23 -137 -41 -143 -41 -7 0 -13 -4 -13 -9 0 -4 -8 -8
-18 -8 -26 0 -181 -49 -157 -49 11 0 81 6 155 14 380 42 474 47 695 41 121 -3
234 -8 250 -10 17 -2 111 -7 210 -10 175 -7 327 -16 333 -21 2 -2 -42 -24 -93
-45 -11 -4 -57 -16 -103 -26 -46 -9 -85 -20 -87 -24 -2 -3 35 -7 83 -8 180 -5
456 -54 546 -97 47 -23 87 -63 84 -82 -4 -23 -105 -123 -144 -143 -16 -8 -62
-34 -101 -57 -83 -48 -510 -263 -653 -328 -52 -24 -157 -73 -232 -109 -75 -36
-139 -66 -142 -66 -2 0 -51 -22 -108 -49 -95 -45 -135 -62 -148 -66 -3 0 -21
-8 -40 -17 -129 -58 -151 -68 -159 -68 -5 0 -35 -12 -67 -26 -33 -14 -68 -29
-79 -34 -120 -48 -195 -78 -215 -85 -19 -7 -49 -18 -70 -27 -14 -6 -29 -12
-35 -13 -5 -1 -17 -4 -25 -7 -8 -4 -44 -16 -80 -28 -36 -12 -72 -24 -80 -27
-8 -3 -19 -7 -25 -9 -5 -1 -25 -7 -42 -13 -18 -5 -33 -8 -33 -6 0 3 -20 -4
-44 -15 -24 -10 -47 -16 -50 -13 -3 4 -6 1 -6 -5 0 -6 -9 -9 -20 -7 -11 2 -26
-2 -34 -10 -7 -8 -15 -12 -17 -10 -2 2 -28 -3 -58 -11 -29 -7 -58 -11 -64 -7
-6 3 -7 1 -3 -5 5 -8 -3 -12 -24 -12 -17 0 -41 -5 -53 -12 -12 -6 -37 -13 -56
-15 -19 -2 -58 -12 -87 -22 -41 -14 -51 -15 -42 -4 9 12 7 12 -13 4 -54 -21
-65 -25 -94 -27 -16 -2 -48 -6 -70 -10 -22 -3 -50 -6 -62 -6 -13 0 -20 -4 -17
-9 3 -6 -9 -9 -28 -7 -19 1 -39 -2 -46 -6 -7 -4 -12 -2 -12 5 0 8 -4 8 -15 -1
-12 -10 -15 -10 -15 1 0 12 -2 12 -9 0 -5 -7 -14 -10 -20 -6 -7 4 -17 2 -24
-3 -7 -5 -22 -8 -35 -7 -13 1 -25 -2 -28 -7 -3 -5 -13 -3 -22 4 -11 10 -16 10
-19 1 -2 -6 -15 -9 -29 -7 -19 3 -24 1 -18 -8 6 -10 3 -9 -9 1 -16 13 -17 -16
-17 -454 0 -384 2 -466 13 -462 8 3 139 80 293 172 657 393 1109 662 1179 701
28 15 84 48 125 74 67 42 417 245 530 308 25 14 86 48 135 77 320 186 749 405
1005 513 398 168 633 225 1235 298 547 66 641 98 870 296 192 165 289 234 444
313 l72 37 168 -16 c400 -38 698 -41 936 -11 60 7 156 10 239 7 226 -8 299 13
597 166 382 196 715 315 1190 426 195 46 422 75 814 106 72 5 155 11 185 14
83 6 273 37 290 47 38 22 -413 3 -735 -31 -374 -39 -869 -116 -1574 -245 -418
-76 -563 -92 -595 -66 -9 8 -16 10 -16 6 0 -4 -7 -1 -17 6 -22 19 -216 16
-399 -5 -78 -9 -177 -19 -220 -21 -77 -5 -129 -10 -129 -14 0 -2 -9 -4 -20 -6
-96 -17 -216 -40 -295 -55 -181 -36 -413 -59 -423 -43 -13 20 341 170 593 252
121 39 388 113 505 141 50 11 117 27 150 35 274 64 583 111 1110 170 77 8 151
17 165 20 76 15 578 59 850 76 207 12 958 8 998 -6 59 -20 4 -33 -298 -70
-351 -43 -452 -57 -545 -76 l-90 -17 70 4 c39 3 194 15 345 29 388 34 698 49
888 41 l162 -6 0 1580 0 1580 -5400 0 -5400 0 0 -1784z m9140 1019 c0 -8 -6
-15 -14 -15 -17 0 -28 14 -19 24 12 12 33 6 33 -9z m80 -18 c0 -31 2 -33 33
-29 45 5 72 -26 72 -83 0 -63 -23 -85 -91 -83 l-54 2 0 113 c0 106 1 113 20
113 16 0 20 -7 20 -33z m610 18 c0 -8 -6 -15 -14 -15 -17 0 -28 14 -19 24 12
12 33 6 33 -9z m-7683 -42 c-3 -10 -5 -2 -5 17 0 19 2 27 5 18 2 -10 2 -26 0
-35z m6905 -20 c10 -9 18 -20 18 -25 0 -13 -22 -9 -41 8 -10 9 -26 14 -34 10
-25 -9 -13 -38 20 -49 42 -14 55 -26 55 -53 0 -27 -26 -44 -66 -44 -30 0 -64
25 -64 47 0 20 20 16 39 -8 12 -16 23 -20 39 -15 26 9 29 34 5 42 -55 18 -73
28 -79 46 -14 46 67 78 108 41z m88 -68 c0 -69 -3 -85 -15 -85 -12 0 -15 16
-15 85 0 69 3 85 15 85 12 0 15 -16 15 -85z m334 63 c10 -14 16 -44 16 -83 l0
-61 -55 -2 c-46 -1 -57 2 -70 21 -19 28 -19 33 5 57 12 12 33 20 55 20 38 0
42 6 21 35 -13 18 -25 17 -58 -7 -25 -18 -34 -2 -13 22 25 28 79 27 99 -2z
m186 -94 c0 -95 -3 -114 -15 -114 -10 0 -15 10 -15 33 0 32 -1 33 -34 29 -27
-3 -37 1 -55 23 -27 35 -27 85 0 118 17 23 27 26 70 26 l49 -2 0 -113z m170
31 c0 -69 -3 -85 -15 -85 -12 0 -15 16 -15 85 0 69 3 85 15 85 12 0 15 -16 15
-85z m157 73 c20 -16 18 -158 -2 -158 -12 0 -15 14 -15 70 0 56 -3 72 -16 77
-34 13 -49 -11 -52 -81 -2 -50 -6 -66 -17 -66 -12 0 -15 17 -15 83 l0 84 52 1
c29 0 58 -4 65 -10z m-7803 -43 c14 -13 26 -26 26 -27 0 -2 -27 -4 -60 -3 -33
0 -60 1 -60 3 0 6 53 52 60 52 4 0 19 -11 34 -25z m1551 -45 c3 -5 1 -10 -4
-10 -6 0 -11 5 -11 10 0 6 2 10 4 10 3 0 8 -4 11 -10z m800 0 c3 -5 1 -10 -4
-10 -6 0 -11 5 -11 10 0 6 2 10 4 10 3 0 8 -4 11 -10z m-2289 -33 c13 -15 28
-27 34 -27 6 0 10 -7 8 -16 -3 -13 -23 -15 -137 -15 -73 0 -135 2 -138 5 -7 7
48 66 72 77 11 5 47 7 79 6 49 -3 63 -8 82 -30z m1295 11 c9 -19 9 -21 -2 -10
-22 21 -59 15 -59 -9 0 -18 5 -21 29 -17 25 4 28 1 29 -26 1 -28 -1 -29 -12
-13 -15 20 -42 23 -49 5 -3 -7 -6 11 -6 40 -1 51 -1 52 29 52 20 0 33 -7 41
-22z m619 2 c15 -28 -4 -60 -35 -60 -14 0 -25 -7 -28 -17 -3 -10 -5 8 -6 40
-1 57 -1 57 29 57 19 0 33 -7 40 -20z m658 8 c5 -7 9 -32 9 -55 -2 -38 -3 -40
-18 -27 -20 18 -39 18 -39 -1 0 -8 -4 -15 -10 -15 -11 0 -14 93 -3 103 11 12
50 8 61 -5z m199 -70 c-2 -18 -4 -6 -4 27 0 33 2 48 4 33 2 -15 2 -42 0 -60z
m563 40 c-3 -52 -1 -56 23 -61 16 -3 13 -5 -10 -6 l-33 -1 0 50 c0 29 5 50 11
50 6 0 10 -15 9 -32z m-1220 12 c10 -6 11 -10 3 -10 -8 0 -13 -13 -13 -29 0
-16 6 -32 13 -34 7 -3 5 -6 -5 -6 -13 -1 -18 7 -18 28 0 17 -5 33 -10 36 -11
7 -4 25 8 25 4 0 14 -5 22 -10z m229 3 c13 -3 29 -19 36 -36 l12 -29 11 31 c7
19 18 31 29 31 11 0 14 -3 7 -8 -6 -4 -21 -28 -33 -54 -13 -28 -30 -48 -39
-48 -13 0 -12 2 3 14 19 14 19 16 2 50 -9 20 -21 36 -27 36 -17 0 -24 -31 -11
-51 7 -12 8 -19 1 -19 -12 0 -16 9 -24 58 -6 34 -4 35 33 25z m-968 -19 c10
-13 10 -17 -2 -25 -8 -5 -20 -9 -26 -9 -7 0 -13 -5 -13 -11 0 -6 9 -9 20 -6
11 3 20 1 20 -5 0 -5 -12 -8 -27 -6 -29 3 -41 32 -29 64 7 19 40 18 57 -2z
m56 -37 c14 -8 9 -27 -7 -27 -8 0 -16 20 -26 65 -3 14 -1 13 8 -5 7 -14 18
-29 25 -33z m26 33 c-5 -19 -23 -29 -23 -12 0 7 20 32 26 32 1 0 0 -9 -3 -20z
m37 -26 c0 -19 -4 -34 -10 -34 -5 0 -10 18 -10 41 0 24 4 38 10 34 6 -3 10
-22 10 -41z m48 1 c9 3 12 -1 10 -12 -5 -26 -26 -27 -33 -1 -13 44 -14 63 -3
35 8 -17 17 -26 26 -22z m26 30 c-4 -8 -10 -15 -15 -15 -4 0 -6 7 -3 15 4 8
10 15 15 15 4 0 6 -7 3 -15z m32 -26 c1 -16 -2 -32 -7 -35 -5 -3 -9 14 -9 37
0 47 14 45 16 -2z m81 -4 l1 -40 -6 35 c-4 22 -13 35 -22 35 -9 0 -17 -13 -21
-35 -6 -35 -6 -35 -8 8 -1 42 0 43 27 40 24 -3 27 -7 29 -43z m103 4 c0 -55
-8 -69 -41 -69 -16 0 -29 4 -29 9 0 5 8 7 18 4 10 -2 24 3 32 12 12 14 11 16
-11 10 -33 -8 -54 15 -45 50 6 22 12 25 41 23 33 -2 35 -4 35 -39z m215 21
c11 -36 -4 -62 -33 -58 -28 3 -40 32 -28 64 8 22 54 18 61 -6z m65 10 c0 -5
-7 -7 -15 -4 -22 9 -18 -5 7 -25 12 -10 18 -23 14 -29 -9 -15 -56 -16 -56 -1
0 6 9 8 20 4 11 -3 20 -2 20 4 0 5 -9 13 -20 16 -20 6 -26 25 -13 38 10 11 43
8 43 -3z m138 -12 c2 -12 -5 -19 -22 -24 -14 -3 -23 -10 -20 -15 3 -6 15 -7
26 -3 14 4 18 2 14 -5 -16 -26 -66 -4 -66 29 0 38 61 54 68 18z m44 -13 c-6
-50 -22 -54 -22 -6 0 27 4 41 13 41 9 0 12 -11 9 -35z m48 -5 c0 -22 -4 -40
-10 -40 -5 0 -10 18 -10 40 0 22 5 40 10 40 6 0 10 -18 10 -40z m368 18 c2
-12 -5 -19 -22 -24 -14 -3 -23 -10 -20 -15 3 -6 15 -7 26 -3 14 4 18 2 14 -5
-16 -26 -66 -4 -66 29 0 38 61 54 68 18z m77 12 c4 -6 -4 -9 -17 -7 -19 2 -23
-3 -23 -23 0 -20 4 -25 23 -23 13 2 21 -1 17 -7 -10 -16 -44 -11 -53 8 -13 24
3 62 27 62 11 0 23 -4 26 -10z m113 -33 c3 -37 2 -38 -25 -35 -35 4 -45 37
-14 45 26 7 27 20 4 27 -11 3 -7 4 7 3 21 -2 25 -8 28 -40z m42 3 c0 -22 -4
-40 -10 -40 -5 0 -10 18 -10 40 0 22 5 40 10 40 6 0 10 -18 10 -40z m137 -5
c2 -40 2 -40 -6 -7 -5 18 -11 35 -14 39 -12 11 -27 -10 -27 -38 0 -16 -4 -29
-10 -29 -5 0 -10 13 -10 29 0 28 -15 49 -27 38 -3 -4 -9 -21 -13 -39 l-8 -33
-1 42 -1 42 58 -2 57 -2 2 -40z m43 11 c0 -19 -4 -38 -10 -41 -6 -4 -10 10
-10 34 0 23 5 41 10 41 6 0 10 -15 10 -34z m84 18 c9 -25 7 -64 -4 -64 -5 0
-10 16 -10 35 0 43 -27 49 -36 8 -10 -48 -12 -49 -13 -5 -1 40 0 42 28 42 17
0 31 -6 35 -16z m96 -22 c0 -37 -1 -39 -32 -38 -17 1 -33 6 -35 12 -2 7 5 10
20 7 31 -6 44 14 24 35 -13 13 -19 13 -31 2 -9 -7 -16 -8 -16 -3 0 16 12 23
42 23 26 0 28 -3 28 -38z m197 22 c9 -25 -14 -41 -37 -26 -16 10 -20 10 -20
-2 0 -16 27 -29 41 -20 5 3 9 0 9 -5 0 -6 -11 -11 -24 -11 -27 0 -41 27 -31
60 8 24 53 27 62 4z m89 -29 c0 -22 -3 -46 -9 -52 -11 -14 -57 -18 -57 -5 0 5
10 8 21 8 12 -1 24 5 26 12 3 8 -1 10 -11 6 -20 -8 -46 13 -46 35 0 25 22 42
50 39 22 -3 25 -8 26 -43z m74 38 c0 -5 -11 -8 -25 -8 -14 0 -25 3 -25 8 0 4
11 7 25 7 14 0 25 -3 25 -7z m80 -2 c0 -5 -8 -8 -17 -7 -13 1 -18 -6 -18 -24
0 -20 4 -25 23 -23 13 2 21 -1 17 -7 -8 -14 -38 -13 -53 2 -25 25 -6 68 30 68
10 0 18 -4 18 -9z m83 -11 c-5 -19 -23 -29 -23 -12 0 7 20 32 26 32 1 0 0 -9
-3 -20z m3720 -5 c1 -5 -6 -11 -15 -13 -11 -2 -18 3 -18 13 0 17 30 18 33 0z
m-3883 -15 c0 -5 -9 -10 -20 -10 -11 0 -20 -5 -20 -10 0 -6 11 -8 26 -4 19 5
25 4 20 -5 -12 -19 -56 -14 -56 7 0 10 3 22 7 25 10 11 43 8 43 -3z m136 -10
c8 0 14 -3 14 -8 0 -14 -31 -52 -42 -52 -7 0 -7 5 1 14 7 8 9 27 6 43 -3 15
-2 22 1 16 3 -7 12 -13 20 -13z m-4031 -40 c3 -5 15 -53 25 -107 32 -162 68
-331 75 -354 5 -15 3 -20 -5 -17 -19 6 -137 459 -124 479 7 12 21 12 29 -1z
m280 1 c16 -3 31 -13 33 -22 2 -13 -16 -15 -130 -14 -109 1 -133 3 -133 15 0
9 14 17 35 21 46 8 157 8 195 0z m94 -86 c-17 -63 -59 -253 -59 -270 0 -4 6
-2 14 4 10 9 16 9 21 1 4 -6 16 -8 27 -4 14 4 24 -1 34 -15 9 -12 20 -21 25
-21 6 0 19 -10 30 -22 l19 -23 20 25 c11 14 20 28 20 31 0 6 -120 63 -157 74
-13 3 -23 11 -23 16 0 18 40 8 116 -30 71 -36 79 -38 91 -23 7 9 13 20 13 24
0 12 -99 65 -156 83 -30 9 -54 21 -54 26 0 5 4 9 9 9 5 0 8 8 7 17 0 10 7 19
18 21 15 3 18 -1 14 -22 -7 -33 3 -34 18 -1 11 22 9 25 -18 34 -16 6 -27 15
-23 20 3 6 21 4 47 -5 23 -8 43 -12 45 -10 3 3 11 22 18 43 9 25 20 39 34 41
30 5 35 -20 12 -59 -12 -19 -21 -37 -21 -40 0 -3 33 -25 73 -49 39 -23 87 -56
104 -73 31 -29 33 -30 52 -13 23 21 45 12 38 -15 -4 -15 0 -19 18 -19 27 0 48
-22 43 -47 -4 -25 10 -43 27 -36 21 7 19 -24 -1 -35 -14 -8 -13 -14 11 -57 49
-89 90 -224 99 -327 4 -46 2 -58 -10 -58 -10 0 -14 13 -14 45 0 25 -5 45 -10
45 -7 0 -8 -13 -4 -35 5 -31 4 -35 -15 -35 -11 0 -21 -4 -21 -10 0 -5 -4 -10
-9 -10 -4 0 -11 27 -15 60 -7 60 -14 68 -49 54 -12 -4 -14 -17 -10 -60 4 -35
2 -54 -5 -54 -13 0 -25 50 -21 87 2 16 1 33 -3 38 -3 6 -11 30 -18 53 -10 41
-13 43 -38 37 -15 -4 -28 -8 -30 -10 -2 -1 2 -23 9 -49 11 -46 12 -46 48 -40
27 4 32 3 21 -5 -8 -6 -24 -11 -35 -11 -18 0 -20 -6 -17 -50 3 -32 0 -50 -7
-50 -6 0 -11 19 -11 46 0 46 0 46 -30 42 -16 -3 -30 -1 -30 4 0 8 31 12 59 8
11 -1 11 2 -2 14 -8 9 -18 30 -22 47 -5 23 -11 29 -23 24 -10 -4 -25 -9 -34
-12 -15 -4 -15 -9 -4 -41 7 -21 16 -58 20 -84 6 -38 4 -48 -7 -48 -10 0 -16
17 -21 58 -18 157 -137 301 -297 357 -32 12 -38 12 -43 -1 -3 -9 -10 -12 -16
-9 -6 4 -8 10 -5 14 7 12 85 412 85 437 0 29 21 48 37 32 9 -10 8 -27 -8 -83z
m3151 74 c0 -5 -13 -9 -30 -9 -39 0 -39 15 0 16 17 1 30 -3 30 -7z m-3222 -44
c3 -3 -19 -188 -24 -196 -2 -4 -46 -6 -98 -6 l-94 0 -12 81 c-19 127 -20 120
25 128 36 5 196 1 203 -7z m-456 -26 c4 -8 13 -27 18 -43 9 -23 14 -27 35 -22
14 3 37 9 51 12 18 5 25 3 23 -7 -1 -8 3 -27 9 -42 13 -31 9 -47 -12 -47 -10
0 -175 -76 -184 -85 -2 -2 4 -15 13 -29 l17 -25 48 30 c54 33 138 65 147 55
10 -10 -6 -20 -77 -50 -36 -15 -73 -33 -84 -41 -18 -14 -18 -15 2 -40 l20 -25
21 26 c11 14 25 23 31 19 7 -4 14 2 17 14 3 12 8 21 12 22 3 0 22 1 41 2 54 3
43 -21 -23 -48 -33 -13 -61 -26 -63 -28 -6 -6 17 -57 27 -57 4 0 26 9 50 20
45 20 79 26 79 13 0 -5 -21 -17 -48 -27 -143 -58 -254 -198 -270 -339 -8 -71
-32 -92 -32 -28 0 39 -2 41 -30 41 -16 0 -30 5 -30 10 0 12 -2 12 37 1 28 -8
32 -7 37 14 3 13 9 30 12 39 4 11 -4 20 -28 30 -18 8 -27 15 -20 15 7 1 22 -3
32 -9 15 -8 22 -4 39 26 21 35 21 37 4 50 -10 7 -22 14 -27 14 -5 0 -7 2 -4 5
3 3 17 0 31 -6 23 -11 29 -9 46 12 26 31 26 40 -3 61 -23 17 -24 16 -55 -22
-17 -21 -31 -43 -31 -47 0 -5 -11 -24 -23 -43 -13 -19 -27 -53 -30 -75 -4 -22
-13 -45 -21 -51 -11 -7 -12 -14 -5 -21 13 -13 1 -83 -13 -83 -7 0 -9 18 -6 45
5 37 3 45 -11 45 -9 0 -23 5 -31 11 -11 8 -8 9 16 5 30 -5 32 -3 44 40 14 49
14 49 -17 58 -19 6 -25 2 -34 -21 -6 -15 -16 -39 -21 -53 -6 -14 -10 -49 -9
-77 2 -32 -2 -53 -8 -53 -6 0 -11 21 -11 49 0 35 -4 51 -16 55 -27 10 -41 7
-41 -11 1 -81 -3 -94 -25 -91 -13 2 -29 8 -37 13 -10 5 -16 4 -19 -3 -2 -7 -8
-12 -14 -12 -34 0 36 298 88 374 l27 39 -23 17 c-25 19 -20 42 8 38 22 -4 27
26 7 45 -8 9 -15 21 -15 27 0 7 -10 20 -22 31 -16 12 -18 18 -9 19 8 0 22 -6
30 -14 9 -8 34 -18 55 -22 33 -6 38 -4 33 8 -9 26 13 39 38 22 19 -13 24 -12
39 5 23 26 169 121 184 121 17 0 15 5 -14 51 -20 33 -23 43 -13 55 14 17 29
14 41 -7z m1844 -8 c17 -10 38 -34 47 -54 34 -71 12 -162 -47 -198 -23 -14
-50 -19 -103 -19 l-73 0 0 145 0 145 73 0 c53 0 80 -5 103 -19z m241 -8 c9
-22 60 -150 100 -250 3 -7 -2 -13 -10 -13 -8 0 -24 17 -34 38 l-18 37 -65 0
-65 0 -18 -37 c-10 -21 -25 -38 -33 -38 -8 0 -14 1 -14 3 0 7 98 245 108 265
17 30 35 28 49 -5z m298 17 c33 -12 59 -71 50 -111 -4 -17 -18 -41 -33 -54
-23 -22 -24 -26 -11 -42 8 -10 23 -30 32 -45 15 -24 15 -28 3 -28 -8 0 -29 20
-46 45 -29 42 -34 45 -75 45 l-45 0 0 -45 c0 -33 -4 -45 -15 -45 -13 0 -15 23
-15 145 l0 145 64 0 c36 0 76 -4 91 -10z m145 -98 c0 -129 10 -152 69 -152 61
0 70 18 73 145 3 98 5 110 22 113 17 4 18 -3 15 -111 -4 -112 -5 -117 -33
-146 -24 -25 -38 -31 -72 -31 -84 0 -114 52 -114 203 0 80 2 87 20 87 19 0 20
-7 20 -108z m280 -22 l0 -129 72 -3 c47 -2 73 -7 76 -16 3 -10 -16 -12 -85
-10 l-88 3 -3 129 c-3 133 0 156 18 156 6 0 10 -47 10 -130z m320 65 l0 -65
75 0 75 0 0 65 c0 51 3 65 15 65 13 0 15 -23 15 -146 0 -112 -3 -145 -12 -142
-8 3 -14 28 -16 66 l-3 62 -74 0 -75 0 0 -65 c0 -51 -3 -65 -15 -65 -13 0 -15
23 -15 145 0 122 2 145 15 145 12 0 15 -14 15 -65z m290 -39 c0 -89 3 -107 21
-130 23 -30 72 -35 105 -12 16 12 20 30 24 127 3 77 9 114 18 117 9 3 12 -24
12 -113 0 -115 0 -117 -29 -146 -54 -54 -144 -34 -172 38 -5 13 -9 69 -9 124
0 81 3 99 15 99 12 0 15 -18 15 -104z m437 87 c24 -11 42 -30 54 -57 24 -53
24 -90 -1 -142 -27 -55 -67 -74 -159 -74 l-71 0 0 145 0 145 71 0 c46 0 84 -6
106 -17z m290 -123 c29 -74 53 -138 53 -142 0 -21 -30 -4 -36 20 -11 46 -22
52 -90 52 l-64 0 -20 -40 c-24 -46 -46 -54 -35 -12 3 15 13 41 21 57 9 17 26
57 39 90 12 33 28 73 34 88 21 54 42 30 98 -113z m-3990 -46 c5 -14 -88 -47
-101 -34 -6 6 6 16 35 29 46 20 61 21 66 5z m411 0 c23 -10 41 -21 40 -26 -4
-11 -11 -11 -60 4 -21 6 -38 17 -38 25 0 17 5 16 58 -3z m-214 -23 c3 -4 24
-11 46 -15 75 -12 43 -26 -60 -26 -96 0 -133 13 -72 25 15 4 34 10 42 15 20
12 38 12 44 1z m699 -28 c-13 -8 -23 -24 -23 -35 0 -24 -18 -19 -38 10 -14 21
-13 22 11 22 14 0 29 5 32 10 3 6 14 10 23 9 14 0 13 -3 -5 -16z m-629 -33 c2
-3 -1 -32 -8 -64 -8 -42 -16 -60 -28 -62 -15 -2 -17 4 -12 39 5 35 2 44 -15
54 -17 11 -26 10 -53 -7 -18 -11 -27 -20 -20 -20 7 0 12 -14 12 -35 0 -43 -26
-49 -34 -7 -17 93 -17 100 1 106 21 6 150 2 157 -4z m1361 -221 l80 -111 3
111 c2 103 4 111 22 111 19 0 20 -8 20 -160 0 -134 -2 -160 -15 -160 -8 0 -52
52 -97 115 l-83 115 -5 -112 c-4 -97 -7 -113 -22 -116 -17 -3 -18 10 -18 157
0 202 3 204 115 50z m361 74 c8 -21 36 -87 61 -148 25 -60 47 -116 50 -123 4
-10 -1 -13 -18 -10 -20 2 -31 22 -74 125 -27 67 -53 125 -57 128 -3 4 -15 -18
-27 -48 -55 -150 -84 -207 -102 -207 -11 0 -19 4 -19 9 0 5 21 58 46 117 25
60 52 128 61 152 12 33 20 42 39 42 18 0 28 -9 40 -37z m342 20 c-2 -14 -15
-19 -50 -21 l-47 -3 -3 -137 c-3 -133 -4 -137 -25 -140 -23 -3 -23 -3 -23 137
l0 140 -47 3 c-36 2 -49 7 -51 21 -3 15 8 17 123 17 115 0 126 -2 123 -17z
m82 -143 c0 -153 -1 -160 -20 -160 -19 0 -20 7 -20 160 0 153 1 160 20 160 19
0 20 -7 20 -160z m301 137 c36 -24 79 -96 79 -133 0 -13 -4 -34 -10 -49 l-10
-26 -33 33 c-18 18 -53 44 -78 57 l-46 24 -46 -31 c-25 -18 -54 -43 -65 -56
-25 -33 -42 -16 -42 41 0 51 17 87 57 124 36 33 46 37 109 38 37 1 60 -5 85
-22z m254 -89 l80 -112 3 112 c2 104 4 112 22 112 19 0 20 -8 20 -160 0 -129
-3 -160 -14 -160 -13 0 -48 43 -137 167 -24 34 -46 63 -49 63 -3 0 -5 -51 -5
-112 0 -106 -1 -113 -20 -113 -19 0 -20 8 -23 158 l-3 157 23 0 c18 0 42 -27
103 -112z m371 47 c14 -33 33 -78 44 -100 10 -22 25 -58 33 -80 8 -22 18 -48
22 -57 5 -14 2 -18 -14 -18 -24 0 -42 32 -92 167 -19 51 -37 93 -41 93 -3 0
-29 -57 -56 -127 -40 -102 -55 -129 -71 -131 -12 -2 -21 0 -21 5 0 4 25 69 56
143 31 74 58 143 61 153 4 12 13 17 30 15 20 -2 30 -15 49 -63z m186 -72 l3
-138 75 -1 c68 -1 75 -3 78 -23 3 -20 0 -21 -97 -21 l-101 0 0 160 c0 153 1
160 20 160 18 0 20 -8 22 -137z m311 102 c-37 -16 -51 -52 -33 -85 6 -12 9
-24 6 -27 -6 -6 -26 41 -26 61 0 24 41 66 63 66 18 -1 16 -3 -10 -15z m207
-50 c0 -42 -4 -65 -11 -65 -7 0 -35 19 -63 43 -28 24 -62 51 -76 60 -13 9 -19
17 -13 17 6 0 39 -22 74 -50 l64 -49 3 54 c4 77 22 69 22 -10z m-3860 -121 c0
-145 0 -145 23 -142 21 3 23 11 36 126 10 91 17 122 28 122 13 0 113 -47 113
-53 0 -2 -22 -45 -50 -97 -55 -104 -54 -100 -41 -100 5 0 30 41 55 90 26 50
51 90 56 90 10 0 50 -49 50 -60 0 -5 -18 -31 -41 -60 -22 -28 -38 -54 -34 -58
3 -4 17 7 29 23 13 17 33 41 44 55 l20 25 13 -29 c12 -27 11 -30 -16 -52 -17
-13 -24 -24 -16 -24 8 0 23 7 33 16 21 19 23 14 31 -54 l5 -42 -148 3 c-104 2
-153 7 -164 16 -13 11 -19 11 -31 1 -9 -7 -18 -10 -21 -7 -5 4 -52 151 -74
232 -5 17 -12 40 -15 52 -6 18 -2 23 18 28 14 4 33 15 43 26 9 10 25 19 36 19
17 0 18 -11 18 -146z m-124 40 c25 -78 63 -210 70 -236 l6 -28 -146 0 c-159 0
-155 -1 -140 58 6 21 12 22 90 22 49 0 84 4 84 10 0 6 -33 10 -80 10 -49 0
-80 4 -80 10 0 16 38 88 50 95 5 3 10 15 10 26 0 24 27 36 43 20 9 -9 8 -17
-2 -34 -13 -21 -12 -21 10 2 17 16 20 25 12 28 -21 8 -15 43 6 43 11 0 23 5
26 11 12 18 28 4 41 -37z m2636 -54 l53 -50 -23 -20 c-52 -44 -152 -45 -195
-2 -18 19 -18 22 -3 44 20 28 85 78 102 78 7 0 37 -22 66 -50z m1219 0 c24
-16 59 -41 77 -56 l32 -27 0 57 c0 31 5 56 10 56 6 0 10 -28 10 -65 0 -40 -4
-65 -11 -65 -6 0 -40 25 -75 55 -36 30 -76 58 -89 61 -50 12 -90 -40 -65 -86
6 -12 9 -24 6 -27 -6 -6 -26 41 -26 61 0 24 41 66 64 66 12 0 42 -13 67 -30z
m100 -166 c16 -15 29 -38 29 -50 0 -27 -53 -74 -83 -73 -16 0 -12 4 15 15 90
38 45 134 -62 134 -46 0 -98 -26 -111 -54 -16 -33 7 -69 53 -83 22 -7 26 -11
13 -12 -25 -1 -61 23 -75 49 -47 88 142 150 221 74z m-2300 -104 c25 -63 53
-132 62 -152 21 -47 21 -48 -3 -48 -22 0 -45 40 -79 139 -12 35 -29 77 -37 94
l-16 30 -34 -89 c-58 -149 -72 -174 -94 -174 -11 0 -20 2 -20 5 0 2 20 52 45
109 25 58 45 108 45 111 0 3 10 26 21 51 17 35 26 44 43 42 16 -2 30 -27 67
-118z m288 109 c63 -22 83 -122 35 -178 l-25 -30 25 -44 c31 -52 32 -57 7 -57
-12 0 -31 19 -51 50 -29 46 -35 50 -70 50 l-39 0 -3 -47 c-3 -41 -6 -48 -25
-51 l-23 -3 0 160 0 161 69 0 c37 0 82 -5 100 -11z m321 -9 c0 -17 -7 -20 -50
-20 l-50 0 0 -140 c0 -133 -1 -140 -20 -140 -18 0 -20 8 -22 138 l-3 137 -47
3 c-45 3 -60 16 -41 35 3 4 57 7 120 7 106 0 113 -1 113 -20z m195 8 c30 -14
30 -45 0 -40 -79 14 -101 13 -119 -6 -30 -34 -13 -58 56 -81 80 -27 98 -44 98
-93 0 -78 -94 -115 -185 -71 -38 18 -39 21 -26 41 7 12 14 11 39 -2 63 -33
137 -13 130 35 -2 20 -15 28 -68 47 -36 12 -73 32 -82 43 -27 32 -23 76 11
110 24 23 38 29 75 29 25 0 57 -5 71 -12z m410 -8 c0 -12 -18 -16 -80 -20
l-80 -5 -3 -52 -3 -52 73 -3 c60 -2 73 -6 76 -20 3 -16 -6 -18 -72 -18 l-76 0
0 -65 c0 -58 -2 -65 -20 -65 -19 0 -20 7 -20 160 l0 161 103 -3 c83 -2 102 -6
102 -18z m255 0 c0 -18 -7 -20 -80 -20 l-80 0 0 -50 0 -50 76 0 c66 0 75 -2
72 -17 -3 -15 -16 -19 -76 -21 l-72 -3 0 -49 0 -50 85 0 c78 0 85 -2 85 -20 0
-19 -7 -20 -105 -20 l-105 0 0 160 0 160 100 0 c93 0 100 -1 100 -20z m224 10
c17 -6 26 -17 26 -31 0 -16 -4 -19 -17 -14 -67 27 -133 12 -133 -29 0 -30 15
-42 72 -56 94 -24 126 -94 69 -151 -25 -24 -37 -29 -81 -29 -55 0 -110 22
-110 45 0 23 18 27 42 11 45 -31 138 -12 138 29 0 20 -33 43 -80 55 -81 21
-117 74 -88 130 24 45 100 64 162 40z m294 -12 c3 -14 -6 -17 -45 -20 l-48 -3
-3 -137 c-2 -129 -4 -138 -22 -138 -18 0 -20 9 -22 138 l-3 137 -47 3 c-40 3
-48 6 -48 23 0 19 6 19 117 17 101 -3 118 -5 121 -20z m-4382 -62 c-9 -19 -16
-36 -16 -39 0 -3 174 -6 388 -7 436 -1 1384 11 1365 17 -16 6 -17 49 -2 59 13
8 31 -15 22 -29 -3 -5 4 -4 16 2 17 10 22 9 28 -5 3 -9 0 -20 -8 -26 -10 -7
-9 -8 6 -3 65 24 104 9 90 -35 -6 -19 -11 -21 -43 -14 -59 12 -1924 16 -1936
4 -16 -16 -64 -12 -75 7 -13 23 4 53 30 53 11 0 34 -7 50 -16 17 -8 36 -13 42
-10 7 2 5 5 -4 5 -9 1 -22 8 -30 17 -10 13 -10 17 1 24 7 4 19 6 27 3 8 -3 13
2 13 12 0 12 6 16 20 12 11 -3 20 0 20 6 0 6 3 7 6 4 4 -3 -1 -22 -10 -41z
m894 19 c0 -19 -20 -29 -32 -17 -15 15 -2 43 17 36 8 -3 15 -12 15 -19z m3713
-82 c-7 -2 -19 -2 -25 0 -7 3 -2 5 12 5 14 0 19 -2 13 -5z m-3 -71 c19 -14 50
-39 68 -55 l32 -31 0 62 c0 35 4 62 10 62 12 0 14 -126 2 -134 -4 -2 -40 22
-80 55 -60 51 -77 60 -104 57 -47 -4 -67 -43 -45 -86 8 -18 12 -32 7 -32 -4 0
-13 14 -20 31 -16 38 -4 79 29 95 29 15 56 8 101 -24z m-3292 -14 c31 -31 -12
-119 -57 -117 -12 0 -11 4 7 16 28 20 28 40 0 62 -13 11 -19 24 -15 34 7 20
48 22 65 5z m-1138 -28 c0 -31 -13 -40 -27 -16 -16 27 -48 36 -71 20 -12 -8
-22 -19 -22 -24 0 -5 25 -28 56 -50 30 -23 60 -52 66 -65 28 -62 -28 -112
-113 -100 -48 7 -49 8 -49 42 l0 35 29 -31 c32 -34 61 -39 85 -15 21 20 8 45
-39 74 -42 26 -75 66 -75 92 0 10 11 30 25 43 20 21 34 25 80 25 54 0 55 0 55
-30z m160 21 c0 -6 -4 -13 -10 -16 -15 -9 -13 -208 2 -223 9 -9 -1 -12 -47
-12 -56 0 -57 1 -42 18 24 26 25 210 2 218 -32 13 -13 24 40 24 30 0 55 -4 55
-9z m225 -5 c31 -13 35 -19 35 -50 0 -26 -6 -38 -22 -47 l-22 -12 27 -14 c37
-19 45 -58 20 -91 -19 -26 -25 -27 -124 -30 -97 -2 -103 -2 -81 13 20 15 22
24 22 110 0 84 -2 96 -20 107 -11 7 -20 16 -20 20 0 14 149 9 185 -6z m276
-98 c24 -61 52 -120 63 -130 19 -18 18 -18 -43 -18 -55 0 -62 2 -51 15 7 8 10
25 6 40 -6 22 -11 25 -56 25 -45 0 -50 -3 -56 -25 -4 -15 -1 -32 6 -40 11 -13
6 -15 -31 -15 -42 0 -43 0 -23 19 11 10 28 40 38 67 9 27 29 77 43 112 37 92
51 85 104 -50z m302 93 c37 -24 55 -50 58 -86 5 -69 -1 -88 -40 -126 l-40 -37
36 -36 c20 -20 45 -36 55 -36 10 0 18 -4 18 -10 0 -11 -97 -14 -102 -2 -5 12
-101 86 -132 102 -42 22 -66 66 -66 124 0 43 4 53 39 87 35 36 43 39 92 39 36
0 64 -6 82 -19z m360 -12 c29 -39 16 -77 -49 -141 l-55 -54 61 4 c56 4 60 3
60 -17 0 -20 -5 -21 -85 -21 -47 0 -85 3 -85 8 0 4 23 29 50 56 72 72 88 149
32 163 -19 4 -29 0 -43 -18 -15 -20 -19 -21 -19 -6 -1 57 95 76 133 26z m194
9 c42 -39 23 -97 -54 -162 -18 -15 -33 -31 -33 -34 0 -4 24 -7 52 -7 42 0 53
-4 56 -17 3 -16 -6 -18 -82 -18 -47 0 -86 3 -86 6 0 4 24 33 54 65 62 66 77
110 50 140 -21 23 -42 24 -66 2 -25 -22 -23 -2 2 25 27 29 76 29 107 0z m713
-168 c11 -11 20 -29 20 -40 0 -20 -32 -60 -48 -60 -4 0 -18 7 -30 16 -26 18
-29 60 -5 86 21 23 38 23 63 -2z m285 11 c3 -5 -7 -11 -22 -13 -36 -4 -43 -28
-8 -28 15 0 24 -4 20 -10 -3 -5 -15 -10 -26 -10 -10 0 -19 -7 -19 -15 0 -10
10 -15 32 -15 24 0 29 -3 21 -11 -7 -7 -23 -9 -37 -5 -23 6 -26 11 -26 55 0
26 3 51 7 54 10 10 51 8 58 -2z m304 0 c9 -6 16 -28 17 -50 2 -46 -20 -67 -57
-56 -25 8 -17 19 14 20 30 0 28 20 -2 20 -14 1 -26 6 -29 13 -2 8 8 12 28 12
35 0 38 24 4 26 -33 3 -35 4 -29 14 8 12 35 13 54 1z m151 0 c0 -8 -52 -23
-59 -16 -1 2 0 8 4 14 8 13 55 15 55 2z m134 -7 c19 -18 20 -36 4 -52 -8 -8
-8 -15 2 -27 17 -20 3 -19 -18 1 -14 15 -17 15 -27 0 -7 -9 -15 -16 -19 -16
-8 0 -8 95 1 103 11 12 41 7 57 -9z m416 -4 c22 -22 25 -42 10 -70 -11 -20
-55 -34 -73 -23 -8 5 -1 9 17 13 58 10 60 77 2 73 -25 -2 -33 7 -19 20 13 13
43 7 63 -13z m150 10 c0 -5 -11 -10 -25 -10 -16 0 -25 -6 -25 -15 0 -8 9 -15
20 -15 11 0 20 -4 20 -10 0 -5 -9 -10 -20 -10 -11 0 -20 -7 -20 -15 0 -9 9
-15 25 -15 14 0 25 -4 25 -10 0 -11 -30 -13 -54 -4 -12 4 -16 20 -16 53 0 26
3 51 7 54 10 11 63 8 63 -3z m124 4 c22 -8 20 -27 -1 -20 -10 3 -23 2 -29 -2
-34 -23 -14 -80 25 -69 25 6 29 -8 5 -17 -9 -4 -27 1 -40 9 -32 20 -32 68 -2
89 26 19 22 18 42 10z m151 -4 c4 -6 -5 -10 -19 -10 -32 0 -35 -27 -3 -33 l22
-4 -22 -8 c-32 -10 -29 -35 4 -35 20 0 24 -3 16 -11 -7 -7 -23 -9 -37 -5 -23
6 -26 11 -26 55 0 26 3 51 7 54 10 11 51 8 58 -3z m310 0 c4 -6 8 -28 10 -50
4 -32 0 -42 -16 -50 -11 -6 -29 -8 -39 -5 -16 5 -20 15 -20 54 0 26 3 51 7 54
10 11 51 8 58 -3z m140 0 c4 -6 -5 -10 -19 -10 -16 0 -26 -6 -26 -15 0 -8 9
-15 20 -15 11 0 20 -4 20 -10 0 -5 -9 -10 -20 -10 -11 0 -20 -7 -20 -15 0 -10
10 -15 27 -15 20 0 24 -3 16 -11 -6 -6 -20 -8 -32 -4 -17 5 -21 14 -21 54 0
26 3 51 7 54 10 10 41 8 48 -3z m136 0 c21 -12 25 -40 7 -58 -8 -8 -8 -15 2
-27 7 -8 8 -15 2 -15 -5 0 -15 7 -22 15 -7 8 -16 15 -21 15 -5 0 -9 -7 -9 -15
0 -8 -4 -15 -10 -15 -15 0 -13 97 3 103 19 8 27 8 48 -3z m-2483 -46 c19 -25
31 -49 27 -52 -4 -4 -10 0 -15 8 -5 8 -16 24 -24 35 -15 19 -15 19 -16 -12 0
-18 -4 -33 -10 -33 -5 0 -10 23 -10 50 0 28 3 50 8 50 4 -1 22 -21 40 -46z
m277 16 c17 -34 18 -40 6 -40 -7 0 -31 51 -31 66 0 12 12 0 25 -26z m65 25 c0
-3 -4 -13 -9 -23 -5 -9 -14 -29 -20 -44 -6 -16 -15 -28 -21 -28 -5 0 -1 17 10
37 11 21 20 43 20 50 0 7 5 13 10 13 6 0 10 -2 10 -5z m225 -25 c9 -16 19 -30
23 -30 4 0 13 14 20 30 20 44 32 37 32 -21 0 -27 -4 -48 -9 -45 -4 3 -6 18 -4
33 l4 28 -21 -28 -22 -28 -24 33 c-22 29 -31 58 -19 58 2 0 11 -13 20 -30z
m1445 -22 c0 -19 17 -5 27 22 17 46 33 37 33 -20 0 -27 -4 -50 -10 -50 -5 0
-10 15 -10 33 l-1 32 -16 -29 c-15 -28 -16 -29 -29 -11 -8 10 -15 24 -15 29
-1 6 -5 -5 -9 -24 -7 -32 -7 -30 -8 20 l-2 55 20 -25 c11 -14 20 -28 20 -32z
m-1095 2 c-3 -5 -17 -10 -31 -10 -13 0 -24 5 -24 10 0 6 14 10 31 10 17 0 28
-4 24 -10z m325 -10 c0 -5 -4 -10 -10 -10 -5 0 -10 5 -10 10 0 6 5 10 10 10 6
0 10 -4 10 -10z m-320 -42 c0 -13 -53 -6 -57 8 -2 7 8 9 27 6 16 -2 30 -9 30
-14z m-2360 -1168 c-14 -4 -36 -8 -50 -8 -22 0 -22 1 5 8 17 4 39 8 50 8 16 0
15 -2 -5 -8z m4320 -295 l-75 -26 -80 17 c-44 9 -83 20 -87 23 -4 3 66 7 155
9 l162 2 -75 -25z"/>
<path d="M9233 12663 c-8 -3 -13 -25 -13 -58 0 -45 3 -55 20 -60 32 -10 50 12
50 59 0 55 -19 75 -57 59z"/>
<path d="M9402 12591 c-18 -11 -11 -45 9 -49 19 -4 49 23 49 44 0 15 -37 19
-58 5z"/>
<path d="M9569 12654 c-18 -22 -16 -81 3 -100 10 -10 23 -14 37 -9 18 5 21 14
21 60 0 39 -4 54 -16 59 -24 9 -30 8 -45 -10z"/>
<path d="M4100 12549 c0 -15 5 -20 22 -17 34 5 37 38 4 38 -20 0 -26 -5 -26
-21z"/>
<path d="M4770 12546 c0 -22 3 -24 23 -17 12 5 22 15 22 22 0 8 -10 15 -22 17
-19 3 -23 -1 -23 -22z"/>
<path d="M3580 12540 c0 -5 7 -10 15 -10 8 0 15 5 15 10 0 6 -7 10 -15 10 -8
0 -15 -4 -15 -10z"/>
<path d="M3970 12535 c-22 -26 7 -46 39 -26 12 8 12 12 2 25 -17 20 -25 20
-41 1z"/>
<path d="M4197 12544 c-12 -12 -8 -42 6 -47 24 -9 44 10 31 30 -12 20 -27 26
-37 17z"/>
<path d="M4400 12540 c0 -5 7 -10 15 -10 8 0 15 5 15 10 0 6 -7 10 -15 10 -8
0 -15 -4 -15 -10z"/>
<path d="M4865 12540 c-3 -5 3 -10 15 -10 12 0 18 5 15 10 -3 6 -10 10 -15 10
-5 0 -12 -4 -15 -10z"/>
<path d="M5063 12513 c-18 -7 -16 -23 2 -23 8 0 15 7 15 15 0 8 -1 15 -2 14
-2 0 -9 -3 -15 -6z"/>
<path d="M5650 12541 c0 -5 7 -11 15 -15 9 -3 15 0 15 9 0 8 -7 15 -15 15 -8
0 -15 -4 -15 -9z"/>
<path d="M5733 12539 c-16 -16 -5 -39 19 -39 14 0 19 6 16 22 -4 25 -19 33
-35 17z"/>
<path d="M2419 12286 c6 -7 9 -20 6 -28 -6 -14 42 -44 53 -33 3 3 0 5 -6 5 -7
0 -12 7 -12 15 0 20 37 19 48 -1 6 -12 11 -13 16 -5 5 7 -13 20 -49 36 -64 29
-72 30 -56 11z"/>
<path d="M2547 12229 c14 -17 1 -45 -17 -34 -8 5 -7 0 2 -14 13 -21 48 -29 48
-11 0 16 40 12 46 -5 4 -8 13 -15 20 -15 23 0 28 -29 9 -50 -20 -22 -33 -18
-76 24 -27 25 -27 25 -45 5 -18 -20 -17 -21 23 -59 l40 -39 24 25 c14 15 29
22 40 19 10 -3 20 -1 24 5 10 16 35 12 42 -7 4 -10 16 -26 28 -35 19 -17 19
-19 3 -32 -10 -7 -18 -21 -18 -30 0 -14 6 -16 30 -11 26 6 31 3 40 -19 5 -14
14 -26 20 -26 16 0 12 -30 -5 -36 -8 -4 -15 -17 -15 -30 0 -26 10 -30 28 -12
8 8 15 8 27 -2 27 -23 -21 87 -70 160 -51 75 -162 186 -220 221 -22 13 -35 17
-28 8z"/>
<path d="M2265 12069 c-4 -17 -5 -32 -3 -34 1 -2 31 -14 66 -28 62 -25 62 -25
73 -5 6 11 13 17 16 15 3 -3 0 -13 -5 -23 -8 -14 -3 -24 27 -50 l36 -33 23 21
c12 12 22 24 22 27 0 3 -15 16 -32 28 -30 21 -33 21 -50 6 -10 -9 -18 -11 -18
-5 0 6 5 14 10 17 16 10 -13 33 -85 65 -37 17 -68 30 -70 30 -2 0 -6 -14 -10
-31z"/>
<path d="M2479 12047 c-12 -17 -19 -29 -14 -25 4 5 24 -4 42 -18 33 -25 35
-25 54 -8 19 17 19 18 -3 42 -42 44 -54 45 -79 9z"/>
<path d="M2627 12039 c-16 -17 -16 -22 -3 -34 8 -8 24 -27 36 -42 16 -20 23
-24 32 -15 7 7 19 12 28 12 11 0 8 -6 -9 -19 l-24 -18 28 -46 c24 -41 30 -46
52 -40 18 4 24 2 19 -6 -4 -6 -18 -11 -31 -11 -23 0 -24 -1 -9 -27 8 -16 19
-40 24 -55 10 -28 42 -39 55 -18 17 27 -76 231 -131 289 -19 20 -34 39 -34 44
0 12 -14 6 -33 -14z"/>
<path d="M2705 12030 c3 -5 8 -10 11 -10 2 0 4 5 4 10 0 6 -5 10 -11 10 -5 0
-7 -4 -4 -10z"/>
<path d="M2570 11985 l-22 -24 33 -35 c33 -34 35 -35 56 -18 l23 17 -34 42
-33 42 -23 -24z"/>
<path d="M2511 11926 l-22 -23 40 -58 c23 -32 41 -64 41 -72 0 -7 4 -13 10
-13 14 0 60 22 60 30 0 9 -59 101 -85 132 l-23 27 -21 -23z m79 -61 c0 -2 -10
-10 -22 -16 -21 -11 -22 -11 -9 4 13 16 31 23 31 12z"/>
<path d="M2780 11920 c0 -5 5 -10 11 -10 5 0 7 5 4 10 -3 6 -8 10 -11 10 -2 0
-4 -4 -4 -10z"/>
<path d="M2637 11896 c-18 -14 -18 -16 3 -56 19 -37 24 -41 48 -35 15 4 28 8
30 9 4 5 -49 96 -56 96 -4 0 -15 -7 -25 -14z"/>
<path d="M2870 11805 c0 -8 5 -15 10 -15 6 0 10 7 10 15 0 8 -4 15 -10 15 -5
0 -10 -7 -10 -15z"/>
<path d="M2841 11784 c0 -11 3 -14 6 -6 3 7 2 16 -1 19 -3 4 -6 -2 -5 -13z"/>
<path d="M2891 11769 c0 -9 -10 -19 -22 -22 -28 -7 -23 -54 5 -49 10 2 23 -2
27 -10 6 -9 8 -5 8 12 -2 33 -16 90 -18 69z"/>
<path d="M2091 12368 c-10 -26 1 -43 23 -35 9 4 12 13 9 27 -8 31 -22 34 -32
8z"/>
<path d="M2177 12374 c-16 -16 -7 -44 14 -44 15 0 20 5 17 22 -3 22 -19 33
-31 22z"/>
<path d="M2090 12265 c0 -28 4 -35 20 -35 16 0 20 7 20 35 0 28 -4 35 -20 35
-16 0 -20 -7 -20 -35z"/>
<path d="M2170 12265 c0 -24 5 -35 15 -35 8 0 15 6 15 13 0 6 3 22 6 35 5 18
2 22 -15 22 -17 0 -21 -6 -21 -35z"/>
<path d="M1880 12300 c-12 -8 -11 -10 7 -10 12 0 25 5 28 10 8 13 -15 13 -35
0z"/>
<path d="M1822 12276 c-21 -11 -22 -14 -8 -25 9 -7 13 -17 10 -22 -3 -5 5 -5
18 0 13 4 22 11 21 15 -2 3 -3 15 -3 26 0 23 -6 24 -38 6z"/>
<path d="M1705 12209 c-93 -63 -185 -167 -243 -277 -43 -83 -55 -125 -28 -103
10 8 16 9 21 1 11 -18 25 -11 25 15 0 16 -6 25 -15 25 -19 0 -20 26 -1 37 8 4
15 17 18 28 2 14 11 20 32 20 20 0 31 6 37 22 6 17 5 21 -5 17 -24 -9 -31 18
-10 35 11 9 23 24 27 34 7 18 37 24 37 7 0 -13 27 -13 35 0 4 6 1 17 -5 25
-15 18 -6 45 15 45 8 0 15 6 15 14 0 21 33 30 46 11 7 -9 18 -13 28 -9 18 7
21 20 6 29 -18 11 -10 35 14 45 21 8 45 30 32 30 -2 0 -39 -23 -81 -51z"/>
<path d="M1780 12210 c0 -5 5 -10 10 -10 6 0 10 5 10 10 0 6 -4 10 -10 10 -5
0 -10 -4 -10 -10z"/>
<path d="M1692 12103 l-43 -36 47 -48 c27 -27 51 -49 54 -49 3 1 20 14 39 29
l33 29 -42 56 c-23 31 -43 56 -44 56 0 0 -20 -17 -44 -37z m78 -27 c0 -18 -58
-61 -68 -51 -6 6 51 65 63 65 3 0 5 -6 5 -14z"/>
<path d="M1660 12119 c0 -5 5 -7 10 -4 6 3 10 8 10 11 0 2 -4 4 -10 4 -5 0
-10 -5 -10 -11z"/>
<path d="M1597 12006 l-36 -44 26 -17 c25 -17 26 -16 36 1 6 10 21 29 34 42
13 13 23 25 21 26 -2 1 -12 9 -24 18 -19 17 -21 16 -57 -26z"/>
<path d="M1853 12002 c23 -26 21 -39 -2 -18 -19 17 -21 17 -55 -6 l-36 -25 27
-23 c29 -25 44 -21 76 22 15 21 17 30 8 47 -7 11 -17 21 -23 21 -6 0 -4 -8 5
-18z"/>
<path d="M1669 11967 c-40 -50 -40 -54 -15 -71 24 -15 26 -14 55 23 l30 38
-22 21 -23 21 -25 -32z"/>
<path d="M1526 11893 c-15 -30 -26 -56 -24 -57 2 -1 15 -7 31 -14 21 -9 27 -9
27 1 0 7 9 29 20 50 25 45 25 42 -3 60 -23 15 -24 14 -51 -40z"/>
<path d="M1596 11853 c-15 -25 -25 -47 -24 -47 48 -27 55 -25 77 21 21 43 21
46 4 59 -26 20 -29 18 -57 -33z"/>
<path d="M1484 11793 c-3 -16 -10 -38 -15 -51 -14 -35 -11 -42 19 -42 24 0 29
6 43 51 l16 51 -24 9 c-33 12 -32 13 -39 -18z"/>
<path d="M1404 11797 c-8 -21 -3 -29 13 -19 8 5 9 13 3 22 -7 12 -10 12 -16
-3z"/>
<path d="M1385 11694 c-4 -35 -6 -66 -4 -68 2 -1 15 1 29 5 25 7 25 7 2 8 -18
1 -23 6 -20 24 2 16 9 21 26 20 17 -2 22 2 22 22 0 14 -4 25 -9 25 -5 0 -16 7
-24 15 -14 13 -16 7 -22 -51z"/>
<path d="M3500 12255 l0 -115 60 0 c51 0 64 4 90 28 40 34 50 93 26 144 -21
44 -51 58 -121 58 l-55 0 0 -115z"/>
<path d="M3851 12318 c-30 -71 -38 -98 -33 -103 7 -7 97 -7 104 1 7 6 -42 134
-51 134 -4 0 -13 -15 -20 -32z"/>
<path d="M4070 12300 l0 -70 49 0 c62 0 94 24 94 68 0 50 -27 72 -90 72 l-53
0 0 -70z"/>
<path d="M5520 12255 l0 -115 60 0 c52 0 64 4 92 29 30 27 33 35 33 86 0 51
-3 59 -33 86 -28 25 -40 29 -92 29 l-60 0 0 -115z"/>
<path d="M5877 12343 c-15 -24 -46 -117 -41 -125 6 -10 104 -11 104 0 0 15
-32 96 -44 114 -8 11 -16 16 -19 11z"/>
<path d="M1976 11853 c-6 -14 -5 -15 5 -6 7 7 10 15 7 18 -3 3 -9 -2 -12 -12z"/>
<path d="M3850 11541 l0 -71 50 0 c59 0 90 24 90 68 0 40 -31 64 -90 70 l-50
5 0 -72z"/>
<path d="M1750 11350 c0 -46 2 -50 23 -50 31 0 47 18 47 52 0 28 -23 48 -54
48 -12 0 -16 -11 -16 -50z"/>
<path d="M1752 11233 c3 -46 4 -48 35 -51 37 -4 59 24 47 61 -9 28 -22 37 -57
37 -27 0 -28 -1 -25 -47z"/>
<path d="M2026 11326 c-22 -52 -21 -56 14 -56 34 0 35 1 16 55 l-14 39 -16
-38z"/>
<path d="M2330 11402 c-46 -14 -70 -82 -56 -157 14 -73 84 -101 125 -49 24 30
29 125 10 168 -12 26 -54 46 -79 38z"/>
<path d="M3630 11210 c-24 -45 31 -82 58 -39 11 18 11 24 -4 40 -22 24 -41 24
-54 -1z"/>
<path d="M4520 11211 c0 -26 17 -36 36 -21 11 10 12 16 3 26 -17 20 -39 17
-39 -5z"/>
<path d="M5667 11224 c-14 -14 -6 -24 19 -24 16 0 24 5 22 13 -5 14 -31 21
-41 11z"/>
<path d="M5660 11165 c0 -9 9 -15 25 -15 16 0 25 6 25 15 0 9 -9 15 -25 15
-16 0 -25 -6 -25 -15z"/>
<path d="M5950 11211 c0 -26 17 -36 36 -21 11 10 12 16 3 26 -17 20 -39 17
-39 -5z"/>
<path d="M30 8759 c0 -6 -4 -7 -10 -4 -6 3 -7 -1 -4 -9 3 -9 1 -16 -4 -16 -15
0 -10 -40 5 -41 7 -1 18 -2 24 -3 7 0 15 -10 19 -20 6 -18 7 -18 13 -2 4 11
13 16 22 12 8 -3 15 -2 15 3 0 13 37 20 48 9 6 -6 12 -6 16 1 4 6 12 11 17 11
6 0 7 -6 3 -12 -5 -9 -2 -9 9 1 14 11 17 11 17 0 0 -11 2 -11 10 1 9 13 10 13
10 0 0 -10 3 -11 8 -3 4 6 28 14 54 18 26 4 46 11 43 15 -3 5 3 10 12 13 10 2
-20 4 -67 5 -126 2 -170 5 -170 14 0 10 -40 6 -59 -6 -9 -6 -12 -5 -8 1 4 6 0
13 -8 17 -8 3 -15 1 -15 -5z"/>
<path d="M27 8659 c7 -7 15 -10 18 -7 3 3 -2 9 -12 12 -14 6 -15 5 -6 -5z"/>
<path d="M5253 8443 c9 -2 23 -2 30 0 6 3 -1 5 -18 5 -16 0 -22 -2 -12 -5z"/>
<path d="M5102 8420 c-288 -76 -520 -269 -654 -545 -134 -279 -135 -610 0
-885 25 -52 47 -97 49 -100 2 -3 -29 -16 -69 -29 -68 -22 -249 -90 -256 -96
-1 -1 2 -22 7 -46 5 -24 12 -66 16 -94 5 -41 26 -153 52 -270 4 -19 11 -21 71
-19 37 1 54 0 39 -3 -19 -3 -27 -9 -23 -18 3 -8 -5 -21 -17 -30 -30 -21 -18
-19 44 9 78 34 215 76 250 76 26 0 29 3 25 20 -3 11 -8 29 -11 39 -7 23 10 29
175 63 87 17 109 19 135 8 69 -28 168 -60 183 -59 10 0 4 5 -12 11 -24 9 -27
14 -22 38 3 18 1 30 -7 33 -11 4 23 11 103 22 19 3 116 8 215 12 99 3 182 8
185 11 6 5 -447 -6 -500 -13 -19 -2 -27 -2 -16 1 14 5 17 12 12 34 -4 22 -1
30 12 33 9 3 -2 5 -25 6 -43 1 -43 1 -44 39 0 20 -2 46 -4 57 -2 11 -7 46 -10
77 -6 57 -6 57 22 64 44 9 50 12 27 13 -23 1 -41 42 -28 63 4 6 -1 8 -15 3
-12 -4 -21 -2 -21 4 0 6 -8 12 -17 12 -10 1 11 7 47 15 l65 13 -65 -5 c-36 -3
-79 -7 -96 -10 -27 -5 -34 0 -72 48 -201 260 -184 623 39 862 38 40 65 77 61
81 -4 5 -1 5 6 1 15 -9 45 12 36 25 -3 5 1 6 8 4 8 -3 22 1 33 9 20 14 20 15
0 13 -29 -3 -29 27 0 43 20 11 28 11 34 2 4 -6 17 -9 29 -5 l23 6 -21 22 c-19
20 -19 24 -6 50 10 18 12 33 6 40 -6 7 -2 15 11 24 24 14 36 8 23 -12 -5 -7
-1 -4 8 6 22 23 14 41 -12 27 -25 -13 -25 -13 -27 12 -2 18 0 20 7 8 9 -13 10
-13 10 1 0 8 -5 20 -12 27 -9 9 -7 12 9 12 12 0 24 6 27 13 3 8 8 7 16 -5 6
-10 16 -18 23 -18 6 0 2 10 -10 22 -19 18 -24 19 -38 8 -14 -12 -16 -7 -13 51
l3 64 50 12 c28 6 39 11 25 11 -14 1 -58 -8 -98 -18z m-52 -165 c0 -3 -6 -20
-14 -39 -17 -41 -61 -76 -95 -76 -14 0 -39 -10 -55 -23 l-29 -23 34 4 c24 2
42 -3 62 -18 15 -12 27 -25 27 -29 0 -12 -48 -31 -76 -31 -57 0 -124 65 -124
121 0 26 45 99 61 99 19 0 32 -53 22 -92 l-10 -37 28 20 c16 11 29 26 29 33 0
22 41 68 74 82 32 14 66 18 66 9z m-300 -161 c7 -19 9 -47 6 -62 l-6 -27 24
30 c14 16 28 26 32 22 4 -4 -2 -18 -14 -30 l-22 -24 29 5 c15 2 43 -4 62 -13
l33 -18 -29 -23 c-32 -26 -83 -31 -117 -13 -17 9 -24 7 -43 -17 -27 -34 -25
-40 6 -24 17 9 31 10 60 1 46 -14 48 -22 14 -50 -33 -25 -75 -34 -107 -22 -23
8 -27 6 -41 -25 -15 -30 -8 -50 8 -24 7 12 92 14 99 2 14 -23 -61 -74 -109
-74 -29 0 -38 -5 -46 -25 -14 -38 -11 -48 10 -29 26 24 101 34 101 15 0 -39
-65 -89 -113 -89 -22 0 -25 -5 -29 -40 l-3 -39 20 19 c23 22 83 45 92 37 11
-12 -8 -59 -33 -82 -14 -13 -39 -27 -55 -30 -25 -6 -29 -11 -29 -41 0 -38 9
-43 27 -14 15 23 70 53 83 45 27 -17 -46 -125 -85 -125 -11 0 -13 -8 -8 -32 8
-45 19 -55 27 -24 8 31 63 73 78 58 25 -25 -19 -119 -62 -134 -12 -4 -12 -9 0
-38 13 -32 14 -32 22 -9 11 30 47 69 64 69 14 0 23 -40 16 -76 -2 -14 -17 -37
-32 -52 l-27 -27 21 -35 21 -35 6 38 c3 21 17 49 30 63 l24 26 12 -29 c30 -71
-1 -129 -77 -143 -25 -5 -52 -11 -60 -15 -15 -5 -80 48 -80 66 0 14 104 11
118 -3 19 -19 14 4 -7 32 -16 20 -27 24 -59 21 -33 -2 -46 3 -76 29 -20 18
-36 41 -36 52 0 19 4 20 42 14 23 -4 50 -13 59 -21 25 -24 28 -17 10 21 -15
31 -23 37 -55 39 -20 1 -46 10 -57 21 -23 20 -54 83 -45 91 10 10 68 -10 95
-33 l29 -24 -10 40 c-6 23 -16 40 -25 40 -48 0 -103 61 -103 114 0 24 2 25 28
15 15 -6 39 -22 55 -37 l27 -26 0 37 c0 31 -4 38 -25 43 -40 10 -75 59 -75
105 0 22 5 39 11 39 6 0 28 -17 49 -38 l38 -38 7 31 c4 22 1 33 -12 40 -47 28
-63 54 -63 105 0 36 4 50 14 50 17 0 66 -56 66 -76 0 -26 17 -14 24 17 5 25 1
36 -24 61 -24 23 -30 38 -30 72 0 23 6 50 13 60 13 17 15 17 36 -10 12 -16 25
-42 28 -58 l6 -29 17 34 c18 33 18 34 -7 63 -21 25 -24 37 -20 74 3 24 12 51
20 59 13 14 17 12 32 -11 10 -15 21 -41 24 -58 l6 -31 18 26 c16 24 16 29 2
50 -22 34 -24 68 -7 102 32 65 43 66 62 9z m87 -1121 c4 -10 -37 -26 -45 -18
-3 3 1 12 8 20 14 17 31 16 37 -2z m123 -228 c0 -103 -2 -115 -19 -125 -41
-21 -56 -12 -87 51 l-29 62 -7 -61 c-4 -34 -10 -66 -13 -72 -8 -13 -75 -13
-75 0 0 5 -18 51 -40 102 -22 50 -38 93 -36 95 1 1 16 6 33 9 30 6 32 4 50
-45 19 -56 31 -48 32 20 1 38 13 49 52 49 12 0 27 -16 44 -50 14 -27 26 -50
28 -50 1 0 2 26 2 57 0 58 6 65 58 72 4 1 7 -51 7 -114z"/>
<path d="M5600 8426 c0 -6 111 -38 116 -33 2 2 -15 9 -38 16 -24 7 -51 15 -60
17 -10 3 -18 3 -18 0z"/>
<path d="M5764 8365 c6 -16 -26 -55 -44 -55 -5 0 -10 -7 -10 -15 0 -8 -4 -15
-10 -15 -5 0 -10 -7 -10 -16 0 -8 5 -12 10 -9 10 6 14 -13 11 -47 -1 -9 3 -19
9 -23 5 -3 10 -28 10 -56 0 -27 4 -49 10 -49 5 0 12 -11 16 -25 8 -33 -15 -57
-42 -42 -29 15 -13 1 41 -38 27 -19 53 -31 59 -28 6 3 8 3 4 -2 -4 -4 12 -30
37 -56 69 -74 120 -159 151 -256 25 -76 29 -104 29 -198 -1 -161 -39 -281
-129 -401 -29 -40 -34 -42 -89 -46 -32 -1 -59 1 -61 7 -3 6 -9 4 -15 -5 -5 -8
-7 -18 -5 -22 7 -11 34 -10 34 2 0 6 17 10 38 9 20 0 31 -3 25 -6 -15 -6 -17
-45 -4 -58 6 -6 4 -18 -6 -30 -9 -11 -13 -13 -11 -5 6 16 -16 43 -26 33 -3 -4
-6 -14 -6 -24 0 -10 -8 -19 -17 -21 -10 -2 13 -8 50 -12 66 -8 68 -8 65 -34
-3 -26 -5 -27 -60 -24 -46 3 -58 1 -58 -11 0 -8 6 -15 13 -14 6 0 29 -1 50 -1
34 -2 37 -4 37 -32 l0 -30 -55 6 c-45 6 -55 4 -55 -8 0 -16 28 -28 70 -28 40
0 52 -13 41 -42 -9 -24 -10 -25 -76 -16 -37 5 -77 8 -89 6 -11 -2 7 -8 42 -12
50 -6 62 -11 62 -26 0 -10 6 -21 13 -24 6 -3 -27 -3 -75 0 -62 5 -88 3 -88 -5
0 -6 17 -11 38 -11 33 -1 35 -2 20 -14 -10 -7 -18 -22 -18 -32 0 -28 -12 -42
-43 -49 -15 -4 -26 -10 -23 -12 8 -8 117 27 193 62 l71 33 104 -19 c128 -24
199 -42 199 -52 -1 -4 -1 -14 -1 -23 0 -11 -6 -15 -19 -11 -18 4 -31 -9 -31
-33 0 -4 17 -11 38 -14 46 -9 247 -74 286 -93 15 -8 25 -10 22 -4 -4 6 -2 11
3 11 26 0 -5 50 -39 63 -10 4 -7 6 8 6 13 1 22 7 22 16 0 9 11 20 24 25 15 5
28 22 34 42 18 59 41 181 47 248 3 36 8 76 11 90 5 25 2 27 -113 63 -65 20
-139 42 -165 48 -27 6 -48 13 -48 14 0 2 16 36 35 76 19 41 47 115 62 164 25
83 27 103 27 270 1 158 -2 190 -22 265 -29 105 -97 252 -156 334 -94 132 -267
277 -400 335 -58 25 -60 25 -52 6z m33 -122 c23 -11 41 -29 53 -54 9 -21 28
-48 43 -59 l26 -21 -6 35 c-3 19 -2 52 2 73 l7 38 34 -37 c37 -41 45 -90 22
-128 -10 -16 -9 -23 12 -45 13 -13 21 -27 18 -30 -2 -3 -15 6 -27 19 l-23 24
-34 -20 c-38 -23 -96 -20 -122 5 -12 12 -9 17 21 36 19 11 45 21 58 21 l24 1
-24 19 c-13 11 -37 20 -53 20 -20 0 -40 10 -61 32 -18 18 -34 32 -37 31 -4 -1
-5 42 -1 55 3 7 38 0 68 -15z m281 -142 c27 -48 28 -81 1 -114 l-20 -26 22
-31 c25 -33 34 -39 25 -14 -8 21 30 107 46 102 6 -2 17 -22 25 -43 15 -44 4
-96 -25 -117 -16 -12 -16 -15 -1 -46 l17 -32 6 26 c8 29 45 84 57 84 5 0 13
-19 19 -41 13 -49 1 -89 -36 -118 -23 -18 -23 -20 -10 -57 10 -27 15 -32 15
-18 1 23 52 84 69 84 14 0 25 -54 17 -82 -9 -30 -35 -58 -60 -68 -17 -7 -20
-15 -17 -50 l4 -42 18 29 c17 29 60 63 80 63 15 0 12 -45 -4 -85 -10 -23 -27
-41 -50 -52 -21 -10 -36 -24 -36 -34 0 -10 -3 -26 -7 -36 -4 -13 1 -11 23 9
30 27 78 51 87 42 10 -10 -12 -77 -34 -100 -12 -13 -37 -27 -56 -30 -23 -4
-33 -12 -33 -24 0 -10 -3 -26 -7 -36 -6 -15 -2 -15 24 4 38 27 93 40 93 22 0
-52 -75 -119 -120 -107 -14 4 -22 -4 -31 -27 -7 -17 -14 -34 -16 -38 -2 -3 13
2 34 13 37 19 93 26 93 12 0 -17 -40 -72 -60 -83 -12 -6 -39 -10 -61 -9 -35 3
-42 0 -59 -29 -20 -32 -20 -33 -1 -22 24 12 111 13 111 1 0 -5 -8 -18 -17 -29
-18 -20 -20 -20 -98 -4 -44 10 -86 21 -92 25 -14 9 -17 85 -5 105 5 7 16 10
25 7 20 -8 50 -72 43 -91 -9 -24 1 -16 22 18 l21 32 -30 33 c-21 25 -29 44
-29 73 0 21 5 42 11 46 17 10 69 -46 69 -75 l1 -26 14 25 c21 36 19 44 -20 83
-29 29 -35 42 -35 76 0 23 3 41 8 41 16 0 54 -34 73 -64 15 -25 19 -27 19 -11
0 11 3 30 6 43 5 16 2 22 -9 22 -28 0 -76 50 -83 86 -3 19 -4 37 -1 40 11 11
78 -29 92 -55 l14 -26 1 42 c0 38 -3 42 -29 48 -15 3 -40 18 -54 33 -29 30
-46 82 -28 82 22 0 84 -30 97 -48 15 -19 17 -9 8 37 -5 25 -12 31 -31 31 -14
0 -37 7 -53 16 -29 18 -64 67 -53 78 16 16 103 -5 103 -26 0 -4 4 -8 9 -8 5 0
4 15 -2 35 -8 27 -16 35 -31 34 -45 -4 -66 2 -95 27 -17 14 -31 32 -31 40 0
20 79 18 109 -2 l23 -16 -21 40 c-20 39 -22 40 -50 29 -34 -13 -77 2 -111 38
l-22 24 39 11 c31 10 45 10 62 0 32 -17 36 -7 8 25 -20 24 -26 26 -44 16 -32
-17 -74 -13 -112 10 l-34 20 24 17 c13 9 44 17 69 17 l45 1 6 50 c6 53 17 84
28 84 4 0 17 -17 29 -39z m-264 -86 c2 -7 -2 -19 -9 -25 -8 -7 -12 -17 -8 -23
4 -6 1 -7 -8 -2 -37 21 -39 26 -21 50 17 23 37 23 46 0z m153 -1041 c-9 -9
-28 6 -21 18 4 6 10 6 17 -1 6 -6 8 -13 4 -17z m-60 -10 c-3 -3 -12 -4 -19 -1
-8 3 -5 6 6 6 11 1 17 -2 13 -5z m126 -148 c66 -15 97 -39 97 -73 0 -23 -31
-63 -50 -63 -6 0 -4 -10 4 -22 8 -13 17 -38 21 -57 l7 -34 -38 8 c-22 4 -40 8
-40 8 -1 1 -8 22 -16 46 -19 59 -36 63 -44 11 -7 -42 -7 -42 -42 -37 -19 4
-36 7 -37 9 -2 2 39 200 44 216 2 5 40 1 94 -12z m-228 -116 c3 -6 -1 -7 -9
-4 -18 7 -21 14 -7 14 6 0 13 -4 16 -10z"/>
<path d="M5996 6754 c-9 -23 -8 -24 22 -24 35 0 45 9 31 27 -15 18 -46 17 -53
-3z"/>
<path d="M5626 8305 c4 -8 11 -15 16 -15 6 0 5 6 -2 15 -7 8 -14 15 -16 15 -2
0 -1 -7 2 -15z"/>
<path d="M5595 8300 c-3 -5 -1 -10 4 -10 6 0 11 5 11 10 0 6 -2 10 -4 10 -3 0
-8 -4 -11 -10z"/>
<path d="M5646 8261 c-4 -7 -5 -15 -2 -18 9 -9 19 4 14 18 -4 11 -6 11 -12 0z"/>
<path d="M5617 8229 c7 -7 15 -10 18 -7 3 3 -2 9 -12 12 -14 6 -15 5 -6 -5z"/>
<path d="M5281 7727 c-44 -14 -107 -74 -117 -112 -9 -37 13 -79 45 -83 92 -14
121 95 33 124 -33 10 -33 10 -12 29 49 45 166 50 212 8 93 -82 42 -263 -73
-263 -22 0 -39 -4 -39 -10 0 -5 23 -10 50 -10 98 0 154 -59 155 -160 0 -107
-65 -179 -170 -188 -59 -5 -134 16 -175 48 l-25 20 32 0 c34 0 63 29 63 63 0
24 -44 67 -70 67 -12 0 -32 -11 -46 -26 -35 -34 -26 -67 31 -120 102 -95 284
-95 384 -1 111 106 68 261 -85 301 l-49 13 30 12 c17 7 43 24 58 39 120 113
40 263 -138 261 -33 -1 -75 -6 -94 -12z"/>
<path d="M5723 7660 c0 -41 2 -58 4 -37 2 20 2 54 0 75 -2 20 -4 3 -4 -38z"/>
<path d="M5590 7635 c0 -25 5 -45 10 -45 6 0 10 20 10 45 0 25 -4 45 -10 45
-5 0 -10 -20 -10 -45z"/>
<path d="M5630 7670 c0 -5 5 -10 10 -10 6 0 10 5 10 10 0 6 -4 10 -10 10 -5 0
-10 -4 -10 -10z"/>
<path d="M5662 7668 c-16 -16 -15 -53 1 -66 10 -8 12 -1 12 34 0 24 0 44 0 44
-1 0 -6 -5 -13 -12z"/>
<path d="M5708 6873 c7 -3 16 -2 19 1 4 3 -2 6 -13 5 -11 0 -14 -3 -6 -6z"/>
<path d="M5080 6840 c0 -16 4 -30 8 -30 5 0 7 14 4 30 -2 17 -6 30 -8 30 -2 0
-4 -13 -4 -30z"/>
<path d="M5123 6820 c-1 -30 3 -82 7 -115 l7 -60 0 50 c1 28 -3 79 -7 115 l-7
65 0 -55z"/>
<path d="M5250 6816 c0 -2 8 -10 18 -17 15 -13 16 -12 3 4 -13 16 -21 21 -21
13z"/>
<path d="M5673 6785 c0 -22 2 -30 4 -17 2 12 2 30 0 40 -3 9 -5 -1 -4 -23z"/>
<path d="M5090 6768 c0 -51 13 -128 22 -128 5 0 7 4 4 9 -3 5 -6 36 -7 70 -1
34 -6 64 -10 67 -5 3 -9 -5 -9 -18z"/>
<path d="M5210 6756 c0 -9 61 -96 67 -96 5 0 -5 16 -39 64 -15 21 -28 36 -28
32z"/>
<path d="M5662 6710 c0 -19 2 -27 5 -17 2 9 2 25 0 35 -3 9 -5 1 -5 -18z"/>
<path d="M5633 6690 c0 -25 2 -35 4 -22 2 12 2 32 0 45 -2 12 -4 2 -4 -23z"/>
<path d="M5222 6680 c0 -14 2 -19 5 -12 2 6 2 18 0 25 -3 6 -5 1 -5 -13z"/>
<path d="M5598 6633 c7 -3 16 -2 19 1 4 3 -2 6 -13 5 -11 0 -14 -3 -6 -6z"/>
<path d="M6716 6573 c13 -13 18 -29 16 -54 -2 -25 3 -40 18 -54 11 -10 20 -29
20 -42 0 -27 15 -28 120 -13 36 5 82 10 103 12 20 1 37 6 37 10 0 12 -302 158
-327 158 -4 0 3 -8 13 -17z"/>
<path d="M3913 6494 c-73 -36 -133 -69 -133 -74 0 -4 51 -13 113 -20 61 -6
124 -15 138 -19 l26 -6 -48 -145 c-26 -80 -47 -146 -46 -147 2 -1 33 17 70 40
40 25 69 50 71 62 2 11 9 45 14 77 11 61 4 98 -39 193 -12 28 -25 62 -28 77
l-6 27 -132 -65z"/>
<path d="M5160 6430 c14 -4 36 -8 50 -8 l25 0 -25 8 c-14 4 -36 8 -50 8 l-25
0 25 -8z"/>
<path d="M5588 6433 c7 -3 16 -2 19 1 4 3 -2 6 -13 5 -11 0 -14 -3 -6 -6z"/>
<path d="M5268 6413 c6 -2 18 -2 25 0 6 3 1 5 -13 5 -14 0 -19 -2 -12 -5z"/>
<path d="M6735 6349 c-4 -15 -5 -61 -3 -102 2 -56 0 -73 -9 -70 -7 3 -13 3
-13 0 0 -7 122 -78 126 -74 4 4 -53 175 -80 237 l-14 35 -7 -26z"/>
<path d="M1758 4761 c-31 -10 -72 -28 -92 -40 -56 -35 -133 -126 -158 -189
l-23 -57 0 -1130 0 -1130 24 -60 c33 -83 133 -183 216 -216 l60 -24 835 0 835
0 60 24 c83 33 183 133 216 216 l24 60 0 1130 0 1130 -24 60 c-33 83 -133 183
-216 216 l-60 24 -820 2 c-770 2 -823 1 -877 -16z m1677 -2 c124 -23 223 -100
278 -217 l32 -67 0 -1130 0 -1130 -31 -65 c-38 -80 -105 -149 -182 -187 l-57
-28 -850 0 -850 0 -59 29 c-79 39 -140 102 -179 184 l-32 67 -3 1109 c-2 993
-1 1115 14 1165 39 138 143 236 284 267 74 17 1548 19 1635 3z"/>
</g>
</svg>
