<?xml version="1.0" encoding="iso-8859-1"?>
<!-- Generator: Adobe Illustrator 19.0.0, SVG Export Plug-In . SVG Version: 6.00 Build 0)  -->
<svg version="1.1" id="Layer_1" xmlns="http://www.w3.org/2000/svg" xmlns:xlink="http://www.w3.org/1999/xlink" x="0px" y="0px"
	 viewBox="0 0 463.079 463.079" style="enable-background:new 0 0 463.079 463.079;" xml:space="preserve">
<g id="XMLID_783_">
	<g>
		<path d="M398.879,0h-57.851H236.033H64.2c-8.284,0-15,6.716-15,15v433.079c0,8.284,6.716,15,15,15h334.679c8.284,0,15-6.716,15-15
			V15C413.879,6.716,407.163,0,398.879,0z M251.032,30h74.996v123.936l-31.141-14.57c-4.027-1.885-8.686-1.885-12.713,0
			l-31.142,14.57V30z M383.879,433.079H79.2V30h141.833v147.514c0,5.129,2.621,9.902,6.948,12.656
			c4.329,2.752,9.762,3.102,14.408,0.931l46.142-21.588l46.141,21.588c2.021,0.945,4.191,1.413,6.355,1.413
			c2.81,0,5.607-0.789,8.053-2.344c4.327-2.754,6.948-7.527,6.948-12.656V30h27.851V433.079z"/>
	</g>
</g>
<g>
</g>
<g>
</g>
<g>
</g>
<g>
</g>
<g>
</g>
<g>
</g>
<g>
</g>
<g>
</g>
<g>
</g>
<g>
</g>
<g>
</g>
<g>
</g>
<g>
</g>
<g>
</g>
<g>
</g>
</svg>
